<svg width="193" height="41" viewBox="0 0 193 41" fill="none" xmlns="http://www.w3.org/2000/svg">
<path d="M61.3834 19.944C61.8874 20.064 62.3194 20.352 62.6314 20.76C62.9194 21.144 63.1114 21.624 63.1114 22.152V27.504C62.0314 27.936 60.6874 28.44 59.2234 28.44C58.9834 28.44 58.7434 28.416 58.5034 28.392C58.4554 28.392 51.8074 27.72 51.8074 18.648C51.8074 13.128 54.8074 8.64 58.5274 8.64C60.1834 8.64 61.4554 9.384 62.3914 10.416C63.3754 11.496 64.0234 12.864 64.2154 14.328C64.2394 14.592 64.2634 14.856 64.2634 15.12C64.2634 15.816 64.1434 16.56 63.7834 17.256C63.7834 17.256 66.6154 17.04 66.6154 13.656C66.6154 13.656 66.5434 11.928 65.1754 10.68C64.0234 9.648 61.9834 8.352 59.0554 8.208C58.8874 8.208 58.7194 8.184 58.5514 8.184C53.3434 8.184 48.9274 12.12 48.3754 17.472C48.3274 17.856 48.3034 18.264 48.3034 18.648C48.3034 24.408 52.8874 29.088 58.5274 29.088C59.5114 29.088 60.4954 28.944 61.3834 28.68C62.1514 28.44 62.9194 28.344 63.7114 28.344C64.2874 28.344 64.8874 28.392 65.4874 28.536L66.6154 28.8V22.152C66.6154 21.12 67.3114 20.184 68.3434 19.944H61.3834ZM82.8366 27.984C82.5246 27.6 82.3326 27.12 82.3326 26.592V24.36C82.3326 23.136 81.8526 22.032 81.0366 21.24C80.5326 20.712 79.8846 20.328 79.1406 20.112C78.9726 20.064 78.8046 20.04 78.6366 19.992C80.5086 19.416 83.3886 18 83.3886 14.376C83.3886 12.72 82.7406 11.208 81.6366 10.128C80.5566 9.048 79.0446 8.376 77.3886 8.376H68.8206C69.3246 8.496 69.7566 8.784 70.0686 9.192C70.3806 9.576 70.5486 10.08 70.5486 10.584V26.592C70.5486 27.624 69.8286 28.56 68.8206 28.8H75.7806C75.2766 28.68 74.8446 28.392 74.5326 27.984C74.2446 27.6 74.0526 27.12 74.0526 26.592V24.576C74.0526 23.448 74.4846 22.416 75.1806 21.624C75.5406 21.24 76.0206 21.024 76.5246 21.024C76.9566 21.024 77.4126 21.192 77.7486 21.528C78.3006 22.104 78.8286 22.992 78.8286 24.36V26.088C78.8286 27.576 80.0526 28.8 81.5646 28.8H84.0606C83.5566 28.68 83.1246 28.392 82.8366 27.984ZM74.0526 8.808H75.1326C78.2046 8.808 79.8846 11.304 79.8846 14.376C79.8846 15.912 79.3806 17.424 78.2766 18.312C75.9246 20.184 74.9406 20.808 74.0526 22.488V8.808ZM93.3791 8.808C95.1311 8.808 96.9311 10.104 97.7231 11.808L96.8591 8.376H84.5471C85.0511 8.496 85.4831 8.784 85.7951 9.192C86.1071 9.576 86.2751 10.08 86.2751 10.584V26.592C86.2751 27.648 85.5551 28.56 84.5471 28.8H96.8591L97.7231 25.368C96.9311 27.096 95.1311 28.368 93.3791 28.368H89.7791V23.904C89.7791 23.016 90.1871 22.176 90.9071 21.672C91.6031 21.144 92.3711 20.76 93.0431 20.52C93.2591 20.448 93.4991 20.4 93.7151 20.4C94.5791 20.4 95.3711 21 95.5631 21.888V17.712C95.3231 18.768 94.5311 19.584 93.4991 19.896C92.3951 20.232 90.9551 20.88 89.7791 22.056V8.808H93.3791ZM107.043 8.808C108.795 8.808 110.595 10.104 111.387 11.808L110.523 8.376H98.2112C98.7152 8.496 99.1472 8.784 99.4592 9.192C99.7712 9.576 99.9392 10.08 99.9392 10.584V26.592C99.9392 27.648 99.2192 28.56 98.2112 28.8H110.523L111.387 25.368C110.595 27.096 108.795 28.368 107.043 28.368H103.443V23.904C103.443 23.016 103.851 22.176 104.571 21.672C105.267 21.144 106.035 20.76 106.707 20.52C106.923 20.448 107.163 20.4 107.379 20.4C108.243 20.4 109.035 21 109.227 21.888V17.712C108.987 18.768 108.195 19.584 107.163 19.896C106.059 20.232 104.619 20.88 103.443 22.056V8.808H107.043ZM126.155 10.296C126.155 9.408 126.731 8.64 127.571 8.376H124.283C125.123 8.64 125.699 9.408 125.699 10.296V26.52L116.483 8.376H111.875C112.379 8.52 112.763 8.88 113.027 9.312L113.099 9.456C113.219 9.72 113.291 10.008 113.291 10.296V26.88C113.291 27.768 112.715 28.536 111.875 28.8H115.139C114.299 28.536 113.723 27.768 113.723 26.88V10.68L122.939 28.8H127.571C126.731 28.536 126.155 27.768 126.155 26.88V10.296ZM141.967 8.376L137.407 22.512L132.631 8.376H128.047C128.479 8.496 128.839 8.76 129.079 9.096C129.175 9.216 129.247 9.336 129.295 9.48L129.439 9.864C129.463 10.008 129.487 10.152 129.487 10.296V26.88C129.487 27.768 128.911 28.536 128.047 28.8H131.335C130.903 28.68 130.567 28.416 130.303 28.08C130.063 27.744 129.919 27.336 129.919 26.88V11.352L135.703 28.8L141.967 9.816V26.592C141.967 27.648 141.271 28.56 140.239 28.8H147.199C146.695 28.68 146.263 28.392 145.951 27.984C145.663 27.6 145.471 27.12 145.471 26.592V10.584C145.471 9.552 146.191 8.64 147.199 8.376H141.967ZM147.688 8.376C148.72 8.64 149.416 9.552 149.416 10.584V26.592C149.416 27.648 148.72 28.56 147.688 28.8H154.648C153.64 28.56 152.92 27.648 152.92 26.592V10.584C152.92 9.552 153.64 8.64 154.648 8.376H147.688ZM169.397 10.296C169.397 9.408 169.973 8.64 170.813 8.376H167.525C168.365 8.64 168.941 9.408 168.941 10.296V26.52L159.725 8.376H155.117C155.621 8.52 156.005 8.88 156.269 9.312L156.341 9.456C156.461 9.72 156.533 10.008 156.533 10.296V26.88C156.533 27.768 155.957 28.536 155.117 28.8H158.381C157.541 28.536 156.965 27.768 156.965 26.88V10.68L166.181 28.8H170.813C169.973 28.536 169.397 27.768 169.397 26.88V10.296ZM181.537 8.808C180.601 8.52 179.617 8.376 178.585 8.376H171.289C171.817 8.496 172.225 8.784 172.537 9.192C172.849 9.576 173.017 10.08 173.017 10.608V26.592C173.017 27.648 172.321 28.56 171.289 28.8H178.585C179.617 28.8 180.601 28.656 181.537 28.368C185.737 27.096 188.785 23.208 188.785 18.6C188.785 13.968 185.737 10.08 181.537 8.808ZM176.521 28.368V8.808H178.585C182.281 8.808 185.281 13.2 185.281 18.6C185.281 24 182.281 28.368 178.585 28.368H176.521Z" fill="#1E1E1E"/>
<ellipse cx="20.5319" cy="19" rx="20.5319" ry="19" fill="#C1DCDC"/>
<path d="M17.5225 37.136C16.7118 37.136 15.8691 36.9547 14.9945 36.592C14.1411 36.2507 13.5331 35.696 13.1705 34.928C13.0211 34.6507 12.9251 34.352 12.8825 34.032C12.8611 33.7333 12.8505 33.4347 12.8505 33.136V32.784C12.8505 32.6133 12.8718 32.4533 12.9145 32.304C12.9571 32.176 13.0638 32.112 13.2345 32.112C13.2771 32.112 13.2985 32.1333 13.2985 32.176C13.2985 32.304 13.2878 32.432 13.2665 32.56C13.2451 32.688 13.2345 32.8267 13.2345 32.976C13.2345 33.9573 13.5438 34.704 14.1625 35.216C14.8025 35.728 15.5918 35.984 16.5305 35.984C17.8745 35.984 19.1118 35.6533 20.2425 34.992C21.3731 34.3307 22.3971 33.424 23.3145 32.272C24.2105 31.1627 24.9358 30.0747 25.4905 29.008C26.0665 27.9627 26.5678 26.896 26.9945 25.808C27.4211 24.72 27.8585 23.6 28.3065 22.448C27.7518 23.28 26.9838 24.048 26.0025 24.752C25.0211 25.4347 23.9545 25.9787 22.8025 26.384C21.6718 26.8107 20.5731 27.024 19.5065 27.024C18.3758 27.024 17.3091 26.8213 16.3065 26.416C15.3251 26.032 14.5358 25.4453 13.9385 24.656C13.3411 23.8667 13.0425 22.8747 13.0425 21.68C13.0425 20.2933 13.3091 18.9387 13.8425 17.616C14.3758 16.2933 15.0905 15.0667 15.9865 13.936C16.8825 12.784 17.8851 11.792 18.9945 10.96C19.9758 10.2133 21.1065 9.60533 22.3865 9.136C23.6878 8.66667 24.9785 8.432 26.2585 8.432C26.7918 8.432 27.2931 8.47467 27.7625 8.56C28.2318 8.624 28.7118 8.77333 29.2025 9.008C29.6291 9.2 29.9705 9.44533 30.2265 9.744C30.4825 10.0213 30.6105 10.3413 30.6105 10.704C30.6105 10.7467 30.6105 10.8 30.6105 10.864C30.6105 10.928 30.5998 10.9813 30.5785 11.024C30.4931 11.3653 30.2905 11.76 29.9705 12.208C29.6718 12.6347 29.4371 13.0827 29.2665 13.552C29.2451 13.6373 29.1278 13.712 28.9145 13.776C28.7011 13.8187 28.6158 13.7973 28.6585 13.712C28.8291 13.4347 28.9571 13.0933 29.0425 12.688C29.1491 12.2827 29.2025 11.8773 29.2025 11.472C29.2025 11.1733 29.1705 10.896 29.1065 10.64C29.0638 10.3627 28.9785 10.128 28.8505 9.936C28.6371 9.552 28.3065 9.28533 27.8585 9.136C27.4105 8.98667 26.9305 8.912 26.4185 8.912C25.9278 8.912 25.4371 8.96533 24.9465 9.072C24.4558 9.17867 24.0291 9.296 23.6665 9.424C22.4291 9.872 21.2451 10.576 20.1145 11.536C19.1118 12.4107 18.2158 13.424 17.4265 14.576C16.6585 15.728 16.0505 16.912 15.6025 18.128C15.1545 19.344 14.9305 20.5067 14.9305 21.616C14.9305 22.7467 15.1438 23.664 15.5705 24.368C16.0185 25.072 16.6051 25.5947 17.3305 25.936C18.0558 26.256 18.8345 26.416 19.6665 26.416C21.3945 26.416 22.9091 26.0213 24.2105 25.232C25.5331 24.4213 26.6531 23.3653 27.5705 22.064C28.4878 20.7627 29.1918 19.3653 29.6825 17.872H26.3865C26.1305 17.872 25.7785 17.8933 25.3305 17.936C24.8825 17.9573 24.4238 18.032 23.9545 18.16C23.4851 18.2667 23.0905 18.448 22.7705 18.704C22.4505 18.96 22.2905 19.312 22.2905 19.76C22.2905 19.9093 22.3118 20.0693 22.3545 20.24C22.3971 20.3893 22.4291 20.5067 22.4505 20.592L22.1625 20.784C22.0131 20.5067 21.8318 20.2187 21.6185 19.92C21.4265 19.6 21.3198 19.344 21.2985 19.152C21.2771 18.9813 21.2878 18.7573 21.3305 18.48C21.3731 18.2027 21.5118 17.9573 21.7465 17.744C22.0025 17.5093 22.3651 17.36 22.8345 17.296C23.3251 17.2107 23.8265 17.168 24.3385 17.168C24.8078 17.168 25.2558 17.1893 25.6825 17.232C26.1091 17.2533 26.4505 17.264 26.7065 17.264H32.7865L32.4345 17.648C32.1358 17.648 31.8051 17.7013 31.4425 17.808C31.0798 17.8933 30.7811 18.0853 30.5465 18.384C30.0771 18.9813 29.7145 19.6533 29.4585 20.4C29.2238 21.1467 28.9785 21.936 28.7225 22.768C28.2958 24.2827 27.8798 25.7653 27.4745 27.216C27.0691 28.688 26.5251 30.0747 25.8425 31.376C25.1811 32.6987 24.2105 33.9147 22.9305 35.024C22.2478 35.6 21.3945 36.0907 20.3705 36.496C19.3465 36.9227 18.3971 37.136 17.5225 37.136Z" fill="black"/>
</svg>
